<svg width="64" height="64" viewBox="0 0 64 64" fill="none" xmlns="http://www.w3.org/2000/svg">
  <circle cx="32" cy="32" r="30" fill="#EEDFCC"/>
  <path d="M20 45V19H29.5C34.1 19 37.6 19.95 40 21.85C42.4 23.7167 43.6 26.4167 43.6 29.95C43.6 33.4167 42.4 36.1 40 38C37.6 39.8667 34.1 40.8 29.5 40.8H25.2V45H20ZM25.2 36.6H29.3C31.8333 36.6 33.75 36.0667 35.05 35C36.35 33.9333 37 32.25 37 29.95C37 27.6167 36.35 25.9333 35.05 24.9C33.75 23.8333 31.8333 23.3 29.3 23.3H25.2V36.6Z" fill="#111111"/>
</svg>
